<?xml version="1.0" encoding="utf-8"?>
<!-- Generator: Adobe Illustrator 16.0.0, SVG Export Plug-In . SVG Version: 6.00 Build 0)  -->
<!DOCTYPE svg PUBLIC "-//W3C//DTD SVG 1.1//EN" "http://www.w3.org/Graphics/SVG/1.1/DTD/svg11.dtd">
<svg version="1.1" xmlns="http://www.w3.org/2000/svg" xmlns:xlink="http://www.w3.org/1999/xlink" x="0px" y="0px" width="500px"
	 height="500px" viewBox="0 0 500 500" enable-background="new 0 0 500 500" xml:space="preserve">
<g id="cat" text-rendering="geometricPrecision" image-rendering="optimizeQuality" shape-rendering="geometricPrecision">
	<path fill="#0000FF" d="M401.667,151.341c-14.784-22.212-34.081-33.318-57.891-33.318c-22.489,0-33.665,5.553-33.665,16.659
		c0,8.469,4.096,12.703,12.286,12.703c2.36,0,5.9-0.694,10.481-2.221c4.65-1.458,8.26-2.152,10.897-2.152
		c16.382,0,29.57,8.746,39.636,26.169c8.468,14.507,12.702,30.75,12.702,48.728c0,25.892-8.815,48.173-26.377,66.775
		c-17.562,18.672-39.287,27.974-65.179,27.974l-2.013,0.069c2.082-6.039,4.095-12.771,5.969-19.228
		c1.875-6.455,2.776-12.494,2.776-18.048c0-17.978-2.429-38.315-11.383-61.083c-10.273-25.127-37.066-53.864-78.576-57.474
		c-17.214-1.874-25.752-3.054-28.112-9.926c-4.512-12.425-15.687-22.628-25.891-24.78c-1.388-0.486-13.049-0.902-11.869-16.867
		c2.013-27.696-4.234-40.121-4.234-40.121s-18.395,25.613-35.262,25.613c-2.777,0-5.623-0.556-8.468-1.458
		C92.988,84.844,78.55,70.822,78.55,70.822c0,4.998,2.499,16.798,7.566,35.262c-3.679,8.468-5.553,15.201-5.553,20.199
		c0,6.872,4.374,15.965,13.05,27.14c8.746,11.245,15.202,19.228,10.689,42.203c-2.082,10.62,4.651,19.574,13.883,30.125
		c7.913,8.469,15.756,16.798,23.392,24.988c2.915,3.957,4.373,10.828,4.373,20.616c0,3.679-0.556,10.689-1.597,21.032
		c-1.319,11.384-2.499,17.7-3.54,19.02c-2.915,1.596-5.969,3.331-9.093,5.136c-4.79,2.915-7.15,6.317-7.15,10.273
		c0,4.512,4.512,6.732,13.466,6.732c11.869,0,19.852-2.498,23.809-7.565c3.193-3.401,5.97-11.384,8.33-23.809
		c1.874,22.976,11.245,44.424,68.164,44.424c6.108,0,15.618-0.069,27.21-3.124c11.661-3.054,19.852-5.83,25.891-5.622h7.149
		c34.915,1.042,64.068-10.064,87.6-33.317c23.461-23.046,35.262-51.991,35.262-86.628
		C421.45,192.781,414.855,170.569,401.667,151.341z M104.511,136.695c0,0,1.805-1.597,5.553-0.139
		c-0.902,1.666-1.735,2.637-2.776,2.707C105.829,139.264,104.511,136.695,104.511,136.695z M122.211,130.587
		c-2.638,0-5.9-0.764-8.815-2.638c1.388-5.067,6.316-7.497,6.316-7.497l3.193,7.913l0.417-8.33c4.026-0.069,7.844,2.916,7.844,2.916
		S128.319,130.587,122.211,130.587z M87.435,122.882c0,0,3.817-2.984,7.844-2.915l0.417,8.33l3.193-7.913
		c0,0,4.928,2.499,6.316,7.497c-2.915,1.875-6.108,2.638-8.815,2.638C90.351,130.587,87.435,122.882,87.435,122.882z"/>
</g>
<g id="balloon">
	<path fill="none" stroke="#000000" stroke-width="6" stroke-miterlimit="10" d="M180.5,284.5c0,0,22.994,63.59,23,81
		c0.015,41-27,44-33,84c-1.542,10.283,7,41,7,41"/>
	<path fill="#ED1C24" d="M173.38,276.187L159.515,296.5h24.927h24.827l-13.845-20.307c54.808-6.871,97.606-64.556,97.627-134.714
		C293.07,66.681,244.461,6.032,184.479,6.015S75.854,66.62,75.833,141.417C75.812,211.574,118.576,269.284,173.38,276.187z
		 M118.644,62.098l6.168,4.267l6.173,4.259c-0.354,0.513-35.065,51.856-11.797,94.965l-13.201,7.126
		C78.315,121.446,116.983,64.498,118.644,62.098z"/>
</g>
</svg>
